<?xml version="1.0" encoding="UTF-8"?>
<svg version="1.1" xmlns="http://www.w3.org/2000/svg" width="500" height="500" viewbox="0 0 500 500">
<path d="M0 0 C2.5078125 -0.4921875 2.5078125 -0.4921875 6 0 C8.98050567 2.30082179 11.39003099 5.05773862 13.875 7.875 C14.90753906 8.99455078 14.90753906 8.99455078 15.9609375 10.13671875 C21 15.68568638 21 15.68568638 21 18 C21.66 18 22.32 18 23 18 C24.234375 19.22265625 24.234375 19.22265625 25.75 21.0625 C36.56736748 33.78082745 48.07008204 46.26626351 61.1328125 56.6875 C63.05233628 58.23567176 64.94334541 59.81984337 66.8046875 61.4375 C78.94919316 71.96932063 92.29351068 79.61873596 107 86 C107.41362793 85.28344238 107.82725586 84.56688477 108.25341797 83.82861328 C110.12403972 80.59219076 111.999455 77.35857172 113.875 74.125 C114.52597656 72.99707031 115.17695313 71.86914062 115.84765625 70.70703125 C116.78544922 69.09248047 116.78544922 69.09248047 117.7421875 67.4453125 C118.3182373 66.45031738 118.89428711 65.45532227 119.48779297 64.43017578 C121 62 121 62 123 60 C125.5 60.1875 125.5 60.1875 128 61 C129.8725378 63.80880671 130.31685594 64.83124112 130.78125 67.9921875 C130.90008545 68.77424561 131.0189209 69.55630371 131.14135742 70.36206055 C131.25970947 71.19133057 131.37806152 72.02060059 131.5 72.875 C131.62673096 73.7203833 131.75346191 74.5657666 131.8840332 75.43676758 C132.14002731 77.14669148 132.39306265 78.85706109 132.64306641 80.56787109 C133.13856523 83.944177 133.66330247 87.31553431 134.1875 90.6875 C134.45873893 92.45827125 134.72975148 94.22907732 135 96 C160.23412309 101.26625178 187.25886764 101.15406306 212.2265625 94.71337891 C214.86111066 94.03572488 217.50305836 93.42393365 220.15625 92.82421875 C241.52307118 87.74763953 262.23039983 78.83957994 282.25390625 69.94140625 C282.9917334 69.61405487 283.72956055 69.28670349 284.48974609 68.94943237 C288.00828425 67.38320726 291.51610366 65.79748476 295.01123047 64.1796875 C296.26654278 63.61054742 297.52191074 63.04153004 298.77734375 62.47265625 C299.86265381 61.97000244 300.94796387 61.46734863 302.06616211 60.94946289 C305.25509616 59.91744454 306.84949234 59.9606828 310 61 C311 62 311 62 311.23681641 64.30029297 C310.95691423 67.49117774 310.1660307 68.69113427 308.2109375 71.1953125 C307.60620605 71.98373535 307.00147461 72.7721582 306.37841797 73.58447266 C305.38672607 74.84203369 305.38672607 74.84203369 304.375 76.125 C302.98874548 77.9264389 301.60334858 79.72853803 300.21875 81.53125 C299.51234375 82.44390625 298.8059375 83.3565625 298.078125 84.296875 C294.95182969 88.3634095 291.90886588 92.48927593 288.875 96.625 C288.29266602 97.41865967 287.71033203 98.21231934 287.11035156 99.0300293 C285.95380885 100.60729426 284.79787256 102.18500408 283.64257812 103.76318359 C282.12943283 105.82374203 280.60525632 107.87558149 279.078125 109.92578125 C261.61669676 133.53856032 245.13093668 158.24877354 231 184 C230.55060059 184.81597656 230.10120117 185.63195312 229.63818359 186.47265625 C226.65335428 191.92986926 223.79721586 197.44461995 221 203 C220.35732178 204.26336182 220.35732178 204.26336182 219.70166016 205.55224609 C188.69201365 266.88143023 174.78593497 334.49909675 165 402 C164.7627549 403.62891493 164.52545028 405.25782119 164.28808594 406.88671875 C163.20394103 414.33912501 162.13152757 421.79318391 161.078125 429.25 C160.89701172 430.53003906 160.71589844 431.81007813 160.52929688 433.12890625 C160.163717 435.80263067 159.81382391 438.47408633 159.48632812 441.15234375 C159.40179382 441.82942383 159.31725952 442.50650391 159.23016357 443.20410156 C158.99938103 445.06640836 158.77627815 446.92966228 158.55371094 448.79296875 C158.03094171 451.82078913 157.39551122 454.26644713 156 457 C153.5625 458 153.5625 458 151 458 C148.17369811 455.8366328 147.52434974 453.99828772 146.97265625 450.5456543 C146.82231934 449.64055115 146.67198242 448.735448 146.51708984 447.80291748 C146.29206787 446.32846161 146.29206787 446.32846161 146.0625 444.82421875 C145.8970166 443.7999176 145.7315332 442.77561646 145.56103516 441.72027588 C145.026318 438.37810464 144.51155678 435.03328953 144 431.6875 C143.82291504 430.54854279 143.64583008 429.40958557 143.46337891 428.2361145 C131.15875442 348.98737582 139.12016711 275.16273915 176.77099609 203.359375 C178.32060965 200.384511 179.84084936 197.39511437 181.36328125 194.40625 C187.9099531 181.58592185 194.6031884 168.88656751 201.7878418 156.40795898 C204.70224075 151.34451581 207.44321445 146.25391971 210 141 C208.84467773 141.3863562 208.84467773 141.3863562 207.66601562 141.78051758 C199.35089427 144.46275452 191.11325142 146.26718123 182.5 147.6875 C181.28441406 147.89955078 180.06882812 148.11160156 178.81640625 148.33007812 C168.13455166 150.13698736 157.52309326 151.16376723 146.6875 151.0625 C145.41261719 151.05347656 144.13773437 151.04445312 142.82421875 151.03515625 C141.42623047 151.01775391 141.42623047 151.01775391 140 151 C140.02320313 151.89976562 140.04640625 152.79953125 140.0703125 153.7265625 C140.38822746 176.3893572 137.22486999 197.52353026 130 219 C129.75266113 219.75474609 129.50532227 220.50949219 129.25048828 221.28710938 C125.21683134 233.49189685 120.03120404 244.24536277 113 255 C112.54496094 255.70366699 112.08992188 256.40733398 111.62109375 257.13232422 C104.18356346 268.50874155 95.55823605 278.36428958 86 288 C85.37810791 288.6285791 84.75621582 289.2571582 84.11547852 289.90478516 C73.27024506 300.81442874 61.12389029 310.48256941 48.8125 319.6875 C47.86503906 320.41839844 46.91757813 321.14929688 45.94140625 321.90234375 C43 324 43 324 39.65234375 325.75390625 C30.93908524 330.86581796 28.56003939 336.491432 25.99517822 346.23101807 C24.86484029 350.69705805 23.81027167 355.17872849 22.78613281 359.67041016 C21.30592193 365.93970086 19.21031788 371.95262863 17 378 C16.59910156 379.16144531 16.19820312 380.32289063 15.78515625 381.51953125 C9.34258221 399.05453711 -1.44016391 414.46505522 -13 429 C-14.22396484 430.54300781 -14.22396484 430.54300781 -15.47265625 432.1171875 C-17.61706716 434.77287305 -19.80240619 437.38830736 -22 440 C-22.7115625 440.89332031 -23.423125 441.78664063 -24.15625 442.70703125 C-24.8471875 443.54621094 -25.538125 444.38539063 -26.25 445.25 C-26.85328125 445.99765625 -27.4565625 446.7453125 -28.078125 447.515625 C-30 449 -30 449 -32.734375 448.734375 C-33.48203125 448.49203125 -34.2296875 448.2496875 -35 448 C-36.51971778 442.33864 -35.26510818 438.377869 -33.53515625 432.984375 C-32.98035755 431.17440693 -32.42558997 429.36442931 -31.87084961 427.55444336 C-31.57548309 426.60793915 -31.28011658 425.66143494 -30.97579956 424.68624878 C-29.42936785 419.71448659 -27.93499576 414.72729556 -26.4453125 409.73828125 C-26.14646652 408.73749039 -25.84762054 407.73669952 -25.53971863 406.70558167 C-16.12209245 374.91462884 -9.75669 342.37392667 -9.8125 309.125 C-9.81343658 308.39846222 -9.81437317 307.67192444 -9.81533813 306.92337036 C-9.90450376 274.83033382 -15.66088017 243.3735474 -22 212 C-24.23211495 214.12778739 -26.06267642 216.33692291 -27.85546875 218.84375 C-28.39196045 219.59092285 -28.92845215 220.3380957 -29.48120117 221.10791016 C-30.04427979 221.8972998 -30.6073584 222.68668945 -31.1875 223.5 C-31.76540283 224.30356934 -32.34330566 225.10713867 -32.9387207 225.93505859 C-35.49513389 229.49041085 -38.04104036 233.05258461 -40.5625 236.6328125 C-41.614375 238.11394531 -41.614375 238.11394531 -42.6875 239.625 C-43.59048828 240.91277344 -43.59048828 240.91277344 -44.51171875 242.2265625 C-45.00285156 242.81179688 -45.49398437 243.39703125 -46 244 C-46.66 244 -47.32 244 -48 244 C-48.23976563 244.55816406 -48.47953125 245.11632812 -48.7265625 245.69140625 C-50.27704087 248.50224281 -52.19281874 250.5849491 -54.375 252.9375 C-56.75115587 255.50835761 -59.03010472 258.03917961 -61.1640625 260.81640625 C-61.76992187 261.53699219 -62.37578125 262.25757813 -63 263 C-63.66 263 -64.32 263 -65 263 C-65 263.66 -65 264.32 -65 265 C-66.375 266.625 -66.375 266.625 -68 268 C-68.66 268 -69.32 268 -70 268 C-70 268.66 -70 269.32 -70 270 C-71.36328125 271.33984375 -71.36328125 271.33984375 -73.3125 272.9375 C-76.88803335 275.96879287 -80.20830626 279.162397 -83.5 282.5 C-87.83601661 286.88321937 -92.28659767 291.02644389 -97 295 C-97.98871094 295.84304688 -98.97742188 296.68609375 -99.99609375 297.5546875 C-105.92097739 302.5996116 -111.8927011 307.58163588 -117.9296875 312.4921875 C-120.29704567 314.4258312 -122.65522777 316.36882418 -125.0078125 318.3203125 C-133.54201502 325.39310634 -142.15275113 332.32225041 -151 339 C-153.475 337.515 -153.475 337.515 -156 336 C-155.5421344 330.8413809 -154.00964299 328.22466146 -150.75 324.25 C-149.83199968 323.10497275 -148.91678067 321.95771179 -148.00390625 320.80859375 C-147.5155127 320.19612793 -147.02711914 319.58366211 -146.52392578 318.95263672 C-143.81243023 315.47834299 -141.25478469 311.89394907 -138.6875 308.3125 C-137.86608521 307.169021 -137.86608521 307.169021 -137.02807617 306.00244141 C-135.90785731 304.44258517 -134.7881492 302.88236199 -133.66894531 301.32177734 C-132.04329273 299.0602273 -130.4100139 296.8044356 -128.7734375 294.55078125 C-125.50128597 290.04409996 -122.24530709 285.52604776 -119 281 C-118.44731445 280.22994629 -117.89462891 279.45989258 -117.32519531 278.66650391 C-96.03730553 248.90890841 -77.39396735 217.69258832 -61 185 C-60.6385791 184.28118652 -60.2771582 183.56237305 -59.90478516 182.82177734 C-35.56509811 133.92195857 -21.39927046 80.54791867 -8.11280441 27.82992458 C-7.39845528 24.99614444 -6.68139465 22.16305234 -5.96454239 19.32990456 C-5.46804204 17.36009041 -4.9770859 15.38895277 -4.48654175 13.41764832 C-4.18781158 12.23383072 -3.88908142 11.05001312 -3.58129883 9.83032227 C-3.32294754 8.79641861 -3.06459625 7.76251495 -2.79841614 6.69728088 C-2.08013927 4.27073367 -1.21774632 2.2101872 0 0 Z M5 13 C1.61105639 22.48904211 -0.69833293 32.26035935 -2.93359375 42.07421875 C-5.3353489 52.59619368 -8.1942212 62.94225107 -11.21777344 73.30175781 C-11.99320015 75.97654433 -12.7532685 78.65519122 -13.5078125 81.3359375 C-16.78410327 92.96462835 -20.27213061 104.50805093 -24 116 C-24.34804687 117.07378906 -24.69609375 118.14757812 -25.0546875 119.25390625 C-26.01690409 122.17634095 -27.00278843 125.08931973 -28 128 C-28.22155762 128.65210449 -28.44311523 129.30420898 -28.67138672 129.97607422 C-31.40012051 137.98364105 -34.22175562 145.80828732 -37.8515625 153.4609375 C-39.04678675 156.10344009 -40.03693285 158.7648893 -41 161.5 C-43.01418501 167.16837837 -45.44336584 172.55811546 -48 178 C-48.62183138 179.36945697 -49.24286509 180.7392763 -49.86328125 182.109375 C-55.40772165 194.21960008 -61.80117025 205.74331793 -68.45166016 217.27636719 C-70.02613343 220.04597044 -71.55140919 222.83809916 -73.06640625 225.640625 C-75.66463277 230.4284637 -78.39594672 235.11077783 -81.25 239.75 C-81.95660767 240.90205933 -81.95660767 240.90205933 -82.67749023 242.07739258 C-86.87686803 248.88056728 -91.27436816 255.53721722 -95.75732422 262.15576172 C-97.03799946 264.05639448 -98.30407963 265.96604374 -99.56640625 267.87890625 C-103.94420001 274.50804164 -108.40352675 281.0386696 -113.12109375 287.43359375 C-115.03911139 290.05342242 -116.89943063 292.70719405 -118.75 295.375 C-121.05384048 298.68578221 -123.41578231 301.89893878 -126 305 C-125.67 305.66 -125.34 306.32 -125 307 C-124.18917969 306.31035156 -123.37835938 305.62070312 -122.54296875 304.91015625 C-121.42463873 303.96074952 -120.30613589 303.01154632 -119.1875 302.0625 C-118.59437012 301.55887939 -118.00124023 301.05525879 -117.39013672 300.53637695 C-113.84263889 297.53263883 -110.25609153 294.59018252 -106.625 291.6875 C-95.11964873 282.26360117 -84.60085449 271.72728072 -74.04174805 261.27191162 C-72.86793666 260.11109549 -71.69174974 258.95267544 -70.51293945 257.79693604 C-62.26177767 249.69541436 -54.96157531 241.22867201 -48 232 C-46.9093169 230.59888483 -45.81722707 229.19886139 -44.72265625 227.80078125 C-10.22581143 182.88353609 6.58417905 129.70257368 22 76 C27.46539437 74.70258409 27.46539437 74.70258409 29.8269043 76.01635742 C30.32101807 76.54076416 30.81513184 77.0651709 31.32421875 77.60546875 C31.87787109 78.17716797 32.43152344 78.74886719 33.00195312 79.33789062 C33.55818359 79.94826172 34.11441406 80.55863281 34.6875 81.1875 C35.25533203 81.77853516 35.82316406 82.36957031 36.40820312 82.97851562 C38.68970013 85.37769829 40.81666297 87.74867042 42.76953125 90.42578125 C43.17558594 90.94527344 43.58164063 91.46476562 44 92 C44.66 92 45.32 92 46 92 C46.21269531 92.5465625 46.42539063 93.093125 46.64453125 93.65625 C48.47969503 96.82944386 50.99451764 99.0688243 53.6875 101.5 C54.53513916 102.27307495 54.53513916 102.27307495 55.39990234 103.06176758 C59.85927425 107.07933472 64.45213925 110.92133078 69.125 114.6875 C69.76397217 115.20441406 70.40294434 115.72132813 71.0612793 116.25390625 C73.6866145 118.33700294 75.79516246 119.93172082 79 121 C85.0519021 116.03770283 90.19040766 110.83921065 95 104.6875 C95.46833252 104.08921387 95.93666504 103.49092773 96.41918945 102.87451172 C98.59218945 100.03697476 100.57165018 97.28682772 102 94 C100.90042969 93.43152344 99.80085937 92.86304687 98.66796875 92.27734375 C84.50090546 84.90539338 72.10708144 76.72504235 59.83496094 66.51025391 C58.29857034 65.24573658 56.73440496 64.01506722 55.1640625 62.79296875 C32.5942623 45.18852459 32.5942623 45.18852459 28 36 C27.34 36 26.68 36 26 36 C25.74605469 35.41734375 25.49210938 34.8346875 25.23046875 34.234375 C23.86679667 31.75811967 22.35774797 30.19479374 20.3125 28.25 C16.87273141 24.91011579 13.7141025 21.4394479 10.640625 17.76171875 C8.90737499 15.90053838 7.07355573 14.4650122 5 13 Z M292 75 C290.00861321 75.72773921 288.0563197 76.56272578 286.125 77.4375 C280.09398128 80.11928978 274.01112118 82.63086967 267.875 85.0625 C262.45229815 87.21316955 257.04877933 89.38670806 251.6875 91.6875 C240.05375841 96.54303921 228.24893327 99.84247911 215.97216797 102.5546875 C214.17509714 102.96046333 212.38580464 103.40030562 210.59765625 103.84375 C188.64618324 109.27056657 165.72933066 109.50338687 143.37890625 106.4375 C139.90670441 105.91439476 139.90670441 105.91439476 136 106 C136.99 117.88 137.98 129.76 139 142 C157.20645293 142.35238296 173.68557792 140.86840997 191.44140625 136.94921875 C192.27553543 136.76561798 193.10966461 136.58201721 193.96907043 136.39285278 C198.20065493 135.45760605 202.42651742 134.50290029 206.64672852 133.51757812 C208.21497161 133.16130466 209.78324814 132.80517838 211.3515625 132.44921875 C212.07875992 132.27339767 212.80595734 132.0975766 213.55519104 131.91642761 C215.59619141 131.4597168 215.59619141 131.4597168 219 131 C220.485 131.99 220.485 131.99 222 133 C221.46260554 137.2102922 220.5376117 140.35699385 218.48046875 144.0625 C217.69833008 145.48755859 217.69833008 145.48755859 216.90039062 146.94140625 C216.33513672 147.95074219 215.76988281 148.96007812 215.1875 150 C214.60291016 151.06089844 214.01832031 152.12179688 213.41601562 153.21484375 C212.20437276 155.41331549 210.98933792 157.60992108 209.77099609 159.8046875 C207.15588429 164.52299233 204.57814916 169.2614293 202 174 C198.90875533 179.67873855 195.80765028 185.35135703 192.67578125 191.0078125 C186.18683172 202.77984217 180.2156269 214.61793135 174.88867188 226.95996094 C173.72100393 229.64046461 172.48679842 232.28830832 171.25 234.9375 C168.56879134 240.86342559 166.20444123 246.88204051 164 253 C163.7019043 253.82097168 163.40380859 254.64194336 163.09667969 255.48779297 C150.88397803 289.48975646 145.78396063 323.76357916 145.75 359.75 C145.74832825 360.6914386 145.74665649 361.6328772 145.74493408 362.60284424 C145.74327511 378.25922267 146.65929888 393.50132643 149 409 C149.15758789 410.16692383 149.31517578 411.33384766 149.47753906 412.53613281 C149.6422168 413.71272461 149.80689453 414.88931641 149.9765625 416.1015625 C150.12432129 417.18002441 150.27208008 418.25848633 150.42431641 419.36962891 C150.78345646 422.14317484 150.78345646 422.14317484 153 424 C153.10307465 423.2922644 153.20614929 422.58452881 153.31234741 421.85534668 C158.74460753 384.65706921 164.46516264 347.64015107 173 311 C173.16997498 310.26742981 173.33994995 309.53485962 173.51507568 308.78009033 C186.67401938 252.42088979 210.11647799 197.27364505 242 149 C242.556875 148.15099121 243.11375 147.30198242 243.6875 146.42724609 C259.54332209 122.27631618 276.62467851 99.07162652 294 76 C293.01 75.505 293.01 75.505 292 75 Z M122 78 C121.56171875 78.74121094 121.1234375 79.48242188 120.671875 80.24609375 C112.37677567 94.02067943 103.25317964 106.99524588 92.59375 119.046875 C88.32848625 123.88473539 88.32848625 123.88473539 84.6875 129.1875 C82.62857024 131.39894308 80.81770136 131.59111839 77.97290039 132.3503418 C74.49935331 133.49414934 71.49621723 135.43715326 68.375 137.3125 C61.47852611 141.32741648 54.54166259 144.36426588 47 147 C45.85789062 147.474375 44.71578125 147.94875 43.5390625 148.4375 C37.35790493 150.76388431 30.83368318 151.83972205 24.375 153.125 C23.06498668 153.39134991 21.75508979 153.65827312 20.4453125 153.92578125 C10.49597699 155.9422618 10.49597699 155.9422618 6.69482422 156.38476562 C5.80553223 156.58779297 4.91624023 156.79082031 4 157 C2.57566833 159.53984806 1.6645393 161.65307079 0.75 164.375 C-1.81195378 171.27119771 -4.77812053 177.76266805 -8.25 184.25 C-8.67442383 185.04712402 -9.09884766 185.84424805 -9.53613281 186.66552734 C-12.73413232 192.61573691 -12.73413232 192.61573691 -14.67871094 195.42626953 C-16.28444612 198.55407076 -16.11164774 199.83123029 -15.375 203.2265625 C-15.16544678 204.24387451 -14.95589355 205.26118652 -14.73999023 206.30932617 C-14.49579346 207.40349854 -14.25159668 208.4976709 -14 209.625 C-13.51078314 211.98808775 -13.02253047 214.35137528 -12.53515625 216.71484375 C-12.27879395 217.92640137 -12.02243164 219.13795898 -11.75830078 220.38623047 C-5.9377945 248.12452214 -1.51841716 276.07315794 -1.046875 304.45410156 C-1.00711943 306.61332592 -0.9295506 308.77180229 -0.84375 310.9296875 C-0.52331179 322.70579163 -2.19618503 334.38170457 -3.63720703 346.04736328 C-3.91774472 348.33055492 -4.17956126 350.61605135 -4.43359375 352.90234375 C-6.88040633 372.90566721 -12.49582164 392.53104906 -18.19165039 411.81591797 C-18.48236923 412.81356926 -18.48236923 412.81356926 -18.77896118 413.83137512 C-19.30775262 415.64390782 -19.84489314 417.45399874 -20.38256836 419.26391602 C-21.29110035 421.94540913 -21.29110035 421.94540913 -20 424 C-0.46374507 398.84417935 11.86050621 372.71073795 19.328125 341.58984375 C21.45703537 332.7801974 23.10008191 327.0776753 31 322 C32.8696808 320.62335697 34.71627463 319.21827034 36.56469727 317.81323242 C38.64312541 316.23624754 40.73402408 314.67718934 42.828125 313.12109375 C51.78711066 306.43914908 60.54826497 299.6124911 68.77734375 292.0390625 C70.79562103 290.18749705 72.85349135 288.40167 74.9375 286.625 C106.91053349 258.49641944 127.17429057 218.46477701 131 176 C131.16265879 173.12503363 131.23178918 170.254067 131.2734375 167.375 C131.2919577 166.16193428 131.2919577 166.16193428 131.31085205 164.92436218 C131.34315814 162.28286885 131.36197534 159.64165702 131.375 157 C131.37989441 156.0898111 131.38478882 155.17962219 131.38983154 154.24185181 C131.43366754 134.29495187 129.24364108 114.78583044 126.30529785 95.08148193 C126.00929005 93.06333835 125.73202784 91.04346652 125.45996094 89.02197266 C125.2952832 87.84554199 125.13060547 86.66911133 124.9609375 85.45703125 C124.82220215 84.44229736 124.6834668 83.42756348 124.54052734 82.38208008 C124.18355115 79.82814988 124.18355115 79.82814988 122 78 Z M27 86 C26.47212891 87.76537109 26.47212891 87.76537109 25.93359375 89.56640625 C24.59047089 94.05424465 23.24320684 98.54082966 21.89404297 103.02685547 C21.30394031 104.98924493 20.71441017 106.95180665 20.12548828 108.91455078 C16.29037817 121.68321152 12.3011002 134.38028843 8 147 C11.24831343 148.04873053 13.46757929 147.92289684 16.7890625 147.21484375 C17.72153809 147.01729492 18.65401367 146.81974609 19.61474609 146.61621094 C21.10482178 146.28024902 21.10482178 146.28024902 22.625 145.9375 C23.65318848 145.70708008 24.68137695 145.47666016 25.74072266 145.23925781 C41.76921167 141.53712657 55.70505609 136.14268957 70 128 C70 127.01 70 126.02 70 125 C68.08215897 123.12877416 68.08215897 123.12877416 65.5625 121.3125 C61.10304129 117.89337021 56.92912283 114.29132834 52.8125 110.46875 C51.12983764 108.79013883 51.12983764 108.79013883 49 109 C49 108.34 49 107.68 49 107 C48.34 107 47.68 107 47 107 C47 106.34 47 105.68 47 105 C45.27836601 103.29714205 45.27836601 103.29714205 43.125 101.5625 C40.53806278 99.41599116 38.88815626 97.83223438 37 95 C36.34 95 35.68 95 35 95 C35 94.34 35 93.68 35 93 C34.34 93 33.68 93 33 93 C33 92.34 33 91.68 33 91 C32.34 91 31.68 91 31 91 C30.566875 90.0409375 30.566875 90.0409375 30.125 89.0625 C29.17176549 86.84793921 29.17176549 86.84793921 27 86 Z " fill="#2584b8" transform="translate(173,17)"/>
<path d="M0 0 C2.25 0.8125 2.25 0.8125 3.25 1.8125 C7.5609648 45.13416262 -13.84053726 90.9750632 -40.5625 123.8125 C-41.95690294 125.48036358 -43.3525644 127.14717655 -44.75 128.8125 C-45.27851563 129.47636719 -45.80703125 130.14023437 -46.3515625 130.82421875 C-47.44032905 132.18995223 -48.58743159 133.5090142 -49.75 134.8125 C-50.41 134.8125 -51.07 134.8125 -51.75 134.8125 C-51.98074219 135.3796875 -52.21148437 135.946875 -52.44921875 136.53125 C-54.08335994 139.39713124 -56.08309884 141.14163002 -58.5625 143.3125 C-59.41457031 144.0653125 -60.26664063 144.818125 -61.14453125 145.59375 C-62.00433594 146.3259375 -62.86414063 147.058125 -63.75 147.8125 C-64.62011719 148.5653125 -65.49023438 149.318125 -66.38671875 150.09375 C-68.75 151.8125 -68.75 151.8125 -71.75 151.8125 C-72.245 153.7925 -72.245 153.7925 -72.75 155.8125 C-73.41 155.8125 -74.07 155.8125 -74.75 155.8125 C-75.87624165 150.45653424 -75.83001419 145.33314543 -75.7421875 139.89453125 C-75.72188778 137.9108174 -75.70264099 135.92709255 -75.68432617 133.94335938 C-75.67388275 132.91106201 -75.66343933 131.87876465 -75.65267944 130.81518555 C-75.39181908 100.74980654 -76.99802561 71.08196061 -87.05078125 42.43359375 C-87.87044924 39.36098358 -88.14487581 36.97584581 -87.75 33.8125 C-84.83481547 31.04673614 -82.19096545 30.23964017 -78.296875 29.48828125 C-77.21519043 29.26906006 -76.13350586 29.04983887 -75.01904297 28.82397461 C-73.85775879 28.59331299 -72.69647461 28.36265137 -71.5 28.125 C-48.98524706 23.3270451 -23.2149034 16.64074076 -5.10229492 1.61621094 C-2.75 -0.1875 -2.75 -0.1875 0 0 Z M-12.8125 16 C-33.74919189 27.93993451 -55.45641114 33.52076372 -78.75 38.8125 C-78.24339844 40.71322266 -78.24339844 40.71322266 -77.7265625 42.65234375 C-77.27594757 44.35153755 -76.82543206 46.05075772 -76.375 47.75 C-76.15328125 48.58080078 -75.9315625 49.41160156 -75.703125 50.26757812 C-74.25072136 55.75680952 -72.92798215 61.25796013 -71.75 66.8125 C-71.4921875 68.02808594 -71.234375 69.24367187 -70.96875 70.49609375 C-66.64430502 93.08191781 -65.95607563 115.93996429 -67.75 138.8125 C-51.57200522 128.24349481 -39.50972277 110.18184568 -29.75 93.8125 C-29.3802002 93.19487793 -29.01040039 92.57725586 -28.62939453 91.94091797 C-16.14036856 70.7068647 -5.24896999 42.3712108 -5.6875 17.375 C-5.708125 16.199375 -5.72875 15.02375 -5.75 13.8125 C-9.05643227 13.8125 -10.03031031 14.35896253 -12.8125 16 Z " fill="#2584b8" transform="translate(273.75,171.1875)"/>
</svg>
